<svg width="46" height="46" viewBox="0 0 46 46" fill="none" xmlns="http://www.w3.org/2000/svg">
<g clip-path="url(#clip0_12_43)">
<path d="M13.8 33.7333C17.1874 33.7333 19.9334 30.9874 19.9334 27.6C19.9334 24.2127 17.1874 21.4667 13.8 21.4667C10.4127 21.4667 7.66669 24.2127 7.66669 27.6C7.66669 30.9874 10.4127 33.7333 13.8 33.7333Z" fill="#F4A261"/>
<path d="M28.3667 38.3333C30.4838 38.3333 32.2 36.6171 32.2 34.5C32.2 32.3829 30.4838 30.6667 28.3667 30.6667C26.2496 30.6667 24.5333 32.3829 24.5333 34.5C24.5333 36.6171 26.2496 38.3333 28.3667 38.3333Z" fill="#E9C46A"/>
<path d="M29.1334 26.0667C34.2144 26.0667 38.3334 21.9477 38.3334 16.8667C38.3334 11.7856 34.2144 7.66666 29.1334 7.66666C24.0523 7.66666 19.9333 11.7856 19.9333 16.8667C19.9333 21.9477 24.0523 26.0667 29.1334 26.0667Z" fill="#2A9D8F"/>
</g>
<defs>
<clipPath id="clip0_12_43">
<rect width="46" height="46" fill="white"/>
</clipPath>
</defs>
</svg>
