<svg width="67" height="67" viewBox="0 0 67 67" fill="none" xmlns="http://www.w3.org/2000/svg">
<g clip-path="url(#clip0_12_63)">
<path d="M55.6111 8.375H25.0555V15.0417L30.0833 19.0694C30.4166 19.3194 30.6111 19.7361 30.6111 20.1528V31.9861C30.6111 32.7639 30 33.375 29.2222 33.375H18.1111C17.3333 33.375 16.7222 32.7639 16.7222 31.9861V20.1528C16.7222 19.7361 16.9166 19.3194 17.25 19.0694L22.2777 15.0417V8.375H11.1666V36.1528C11.1666 42.2917 16.1388 47.2639 22.2777 47.2639H38.9444C45.0833 47.2639 50.0555 42.2917 50.0555 36.1528V27.8194H55.6111C58.6944 27.8194 61.1666 25.3194 61.1666 22.2639V13.9306C61.1666 10.8472 58.6944 8.375 55.6111 8.375ZM55.6111 22.2639H50.0555V13.9306H55.6111V22.2639Z" fill="#F4A261"/>
<path d="M55.6111 52.8195H11.1666V58.375H55.6111V52.8195Z" fill="#F4A261"/>
</g>
<defs>
<clipPath id="clip0_12_63">
<rect width="67" height="67" fill="white"/>
</clipPath>
</defs>
</svg>
