<svg width="81" height="81" viewBox="0 0 81 81" fill="none" xmlns="http://www.w3.org/2000/svg">
<g clip-path="url(#clip0_12_71)">
<path d="M30.375 13.5V18.1575C27.5737 17.0438 24.57 16.47 21.5662 16.47C15.525 16.47 9.48374 18.765 4.85999 23.3887L16.0987 34.6275H19.845V38.3737C22.7475 41.2762 26.5275 42.795 30.3412 42.9637V50.625H20.25V60.75C20.25 64.4625 23.2875 67.5 27 67.5H60.75C66.3525 67.5 70.875 62.9775 70.875 57.375V13.5H30.375ZM26.6287 35.1337V27.8775H18.9337L15.4237 24.3675C17.3475 23.625 19.44 23.22 21.5662 23.22C26.0887 23.22 30.3075 24.975 33.5137 28.1475L38.2725 32.9062L37.5975 33.5812C35.8762 35.3025 33.5812 36.2812 31.1175 36.2812C29.5312 36.2812 27.9787 35.8762 26.6287 35.1337ZM64.125 57.375C64.125 59.2313 62.6062 60.75 60.75 60.75C58.8937 60.75 57.375 59.2313 57.375 57.375V50.625H37.125V41.8837C39.0487 41.1075 40.8375 39.96 42.39 38.4075L43.065 37.7325L52.6162 47.25H57.375V42.4913L37.125 22.3425V20.25H64.125V57.375Z" fill="#F4A261"/>
</g>
<defs>
<clipPath id="clip0_12_71">
<rect width="81" height="81" fill="white"/>
</clipPath>
</defs>
</svg>
