<svg width="100" height="100" viewBox="0 0 100 100" fill="none" xmlns="http://www.w3.org/2000/svg">
<rect width="100" height="100" rx="6" fill="#2A9D8F"/>
<path d="M49.875 32.5C54.1552 32.5 57.625 29.0302 57.625 24.75C57.625 20.4698 54.1552 17 49.875 17C45.5948 17 42.125 20.4698 42.125 24.75C42.125 29.0302 45.5948 32.5 49.875 32.5Z" fill="#F4A261"/>
<path d="M84.75 63.5V55.75C76.07 55.75 68.63 52.03 63.05 45.365L57.8575 39.165C56.385 37.3825 54.215 36.375 51.9287 36.375H47.86C45.5737 36.375 43.4037 37.3825 41.9312 39.165L36.7387 45.365C31.12 52.03 23.68 55.75 15 55.75V63.5C25.7338 63.5 35.1112 58.9662 42.125 50.9062V59.625L27.09 65.6312C24.4937 66.6775 22.75 69.235 22.75 72.0637C22.75 75.9 25.85 79 29.6862 79H38.25V77.0625C38.25 71.715 42.59 67.375 47.9375 67.375H59.5625C60.6475 67.375 61.5 68.2275 61.5 69.3125C61.5 70.3975 60.6475 71.25 59.5625 71.25H47.9375C44.7213 71.25 42.125 73.8462 42.125 77.0625V79H70.0637C73.9 79 77 75.9 77 72.0637C77 69.235 75.2562 66.6775 72.66 65.6312L57.625 59.625V50.9062C64.6387 58.9662 74.0163 63.5 84.75 63.5Z" fill="#F4A261"/>
</svg>
