<svg width="73" height="73" viewBox="0 0 73 73" fill="none" xmlns="http://www.w3.org/2000/svg">
<g clip-path="url(#clip0_12_49)">
<path d="M50.1875 36.4999C54.385 36.4999 57.7612 33.0933 57.7612 28.8958C57.7612 24.6983 54.385 21.2916 50.1875 21.2916C45.99 21.2916 42.5833 24.6983 42.5833 28.8958C42.5833 33.0933 45.99 36.4999 50.1875 36.4999ZM27.375 33.4583C32.4241 33.4583 36.4696 29.3824 36.4696 24.3333C36.4696 19.2841 32.4241 15.2083 27.375 15.2083C22.3258 15.2083 18.25 19.2841 18.25 24.3333C18.25 29.3824 22.3258 33.4583 27.375 33.4583ZM50.1875 42.5833C44.6212 42.5833 33.4583 45.3816 33.4583 50.9478V57.7916H66.9166V50.9478C66.9166 45.3816 55.7537 42.5833 50.1875 42.5833ZM27.375 39.5416C20.2879 39.5416 6.08331 43.1003 6.08331 50.1874V57.7916H27.375V50.9478C27.375 48.3624 28.3787 43.8303 34.5837 40.3933C31.9375 39.8458 29.3825 39.5416 27.375 39.5416Z" fill="#264653"/>
</g>
<defs>
<clipPath id="clip0_12_49">
<rect width="73" height="73" fill="white"/>
</clipPath>
</defs>
</svg>
