<svg width="118" height="118" viewBox="0 0 118 118" fill="none" xmlns="http://www.w3.org/2000/svg">
<path d="M59 8.13794C45.5152 8.15302 32.587 13.5165 23.0517 23.0517C13.5165 32.587 8.15302 45.5152 8.13794 59C8.16053 72.4825 13.5265 85.4064 23.06 94.9399C32.5936 104.474 45.5175 109.839 59 109.862C72.4895 109.862 85.4264 104.503 94.9649 94.9649C104.503 85.4264 109.862 72.4895 109.862 59C109.862 45.5105 104.503 32.5736 94.9649 23.0351C85.4264 13.4966 72.4895 8.13794 59 8.13794ZM89.9363 88.3494C87.0798 82.5878 82.67 77.7391 77.2044 74.3504C71.7388 70.9617 65.435 69.1679 59.0041 69.1712C52.5733 69.1746 46.2713 70.9751 40.8093 74.3696C35.3473 77.764 30.9426 82.6174 28.0921 88.382C20.4869 80.4943 16.2492 69.9569 16.2759 59C16.2759 47.6689 20.7771 36.8018 28.7895 28.7895C36.8018 20.7771 47.6689 16.2759 59 16.2759C70.3311 16.2759 81.1982 20.7771 89.2105 28.7895C97.2229 36.8018 101.724 47.6689 101.724 59C101.75 69.9416 97.523 80.4651 89.9363 88.3494ZM59 28.4828C55.3786 28.4828 51.8384 29.5566 48.8273 31.5686C45.8162 33.5806 43.4693 36.4403 42.0835 39.786C40.6976 43.1318 40.335 46.8134 41.0415 50.3653C41.748 53.9171 43.4919 57.1797 46.0526 59.7405C48.6134 62.3012 51.876 64.0451 55.4278 64.7516C58.9797 65.4581 62.6613 65.0955 66.0071 63.7097C69.3528 62.3238 72.2125 59.9769 74.2245 56.9658C76.2365 53.9547 77.3103 50.4146 77.3103 46.7931C77.3103 44.3886 76.8367 42.0076 75.9165 39.786C74.9964 37.5645 73.6476 35.546 71.9474 33.8457C70.2471 32.1455 68.2286 30.7967 66.0071 29.8766C63.7855 28.9564 61.4045 28.4828 59 28.4828Z" fill="#F4A261"/>
</svg>
